#N canvas 72 96 1848 984 10;
#X obj 951 868 output~;
#X text 834 140 to scope channel 1;
#X obj 868 167 audioInput~;
#X obj 1019 332 loadbang;
#X obj 916 228 *~ 1.5;
#X obj 861 231 *~ 1.5;
#X obj 951 600 +~;
#X text 1115 631 creates a delay line;
#X text 1116 645 \$0-sammap is creating a name for the delay line;
#X text 1115 661 1000 sets the delay line to 1000ms or 1s;
#X obj 951 791 reverbA~;
#X obj 1067 678 loadbang;
#X msg 1041 707 127;
#X obj 1115 423 delread4~ \$0-sammap2;
#X obj 911 646 delwrite~ \$0-sammap2 1000;
#X msg 1023 363 550;
#X obj 1004 567 lop~ 400;
#X obj 1123 451 *~ 0.85;
#X connect 2 0 5 0;
#X connect 2 1 4 0;
#X connect 3 0 15 0;
#X connect 4 0 6 0;
#X connect 5 0 6 0;
#X connect 6 0 10 0;
#X connect 6 0 14 0;
#X connect 10 0 0 0;
#X connect 11 0 12 0;
#X connect 12 0 10 1;
#X connect 13 0 17 0;
#X connect 15 0 13 0;
#X connect 16 0 6 1;
#X connect 17 0 16 0;
